<mxfile host="Electron" agent="Mozilla/5.0 (Windows NT 10.0; Win64; x64) AppleWebKit/537.36 (KHTML, like Gecko) draw.io/26.2.2 Chrome/134.0.6998.178 Electron/35.1.2 Safari/537.36" version="26.2.2">
  <diagram name="Page-1" id="uWe6yTaGmnLLSA9qaFKJ">
    <mxGraphModel dx="1285" dy="1394" grid="1" gridSize="10" guides="1" tooltips="1" connect="1" arrows="1" fold="1" page="1" pageScale="1" pageWidth="850" pageHeight="1100" math="0" shadow="0">
      <root>
        <mxCell id="0" />
        <mxCell id="1" parent="0" />
        <mxCell id="QZCH3a_QSV3moyp_Yn6d-1" value="&lt;div style=&quot;background-color: rgb(30, 31, 34);&quot;&gt;&lt;pre style=&quot;font-family:&#39;JetBrains Mono&#39;,monospace;font-size:9.8pt;&quot;&gt;&lt;span style=&quot;&quot;&gt;def &lt;/span&gt;&lt;span style=&quot;&quot;&gt;__check_if_already_has_set&lt;/span&gt;(&lt;span style=&quot;&quot;&gt;self&lt;/span&gt;, new_set_name)&lt;/pre&gt;&lt;/div&gt;" style="text;html=1;align=center;verticalAlign=middle;resizable=0;points=[];autosize=1;strokeColor=none;fillColor=none;fontColor=default;" parent="1" vertex="1">
          <mxGeometry x="159.95" y="20" width="380" height="60" as="geometry" />
        </mxCell>
        <mxCell id="QZCH3a_QSV3moyp_Yn6d-6" style="edgeStyle=orthogonalEdgeStyle;rounded=0;orthogonalLoop=1;jettySize=auto;html=1;exitX=0.5;exitY=1;exitDx=0;exitDy=0;exitPerimeter=0;entryX=0.5;entryY=0;entryDx=0;entryDy=0;fontColor=default;" parent="1" source="QZCH3a_QSV3moyp_Yn6d-2" target="QZCH3a_QSV3moyp_Yn6d-5" edge="1">
          <mxGeometry relative="1" as="geometry" />
        </mxCell>
        <mxCell id="QZCH3a_QSV3moyp_Yn6d-2" value="&lt;font style=&quot;font-size: 16px;&quot;&gt;begin&lt;/font&gt;" style="strokeWidth=2;html=1;shape=mxgraph.flowchart.terminator;whiteSpace=wrap;fontColor=default;" parent="1" vertex="1">
          <mxGeometry x="310.00000000000006" y="100" width="115" height="60" as="geometry" />
        </mxCell>
        <mxCell id="QZCH3a_QSV3moyp_Yn6d-13" style="edgeStyle=orthogonalEdgeStyle;rounded=0;orthogonalLoop=1;jettySize=auto;html=1;exitX=1;exitY=0.5;exitDx=0;exitDy=0;exitPerimeter=0;fontColor=default;" parent="1" source="QZCH3a_QSV3moyp_Yn6d-4" target="QZCH3a_QSV3moyp_Yn6d-12" edge="1">
          <mxGeometry relative="1" as="geometry" />
        </mxCell>
        <mxCell id="QZCH3a_QSV3moyp_Yn6d-14" value="no" style="edgeLabel;html=1;align=center;verticalAlign=middle;resizable=0;points=[];fontColor=default;" parent="QZCH3a_QSV3moyp_Yn6d-13" vertex="1" connectable="0">
          <mxGeometry x="-0.4481" y="-1" relative="1" as="geometry">
            <mxPoint as="offset" />
          </mxGeometry>
        </mxCell>
        <mxCell id="QZCH3a_QSV3moyp_Yn6d-127" style="edgeStyle=orthogonalEdgeStyle;rounded=0;orthogonalLoop=1;jettySize=auto;html=1;exitX=0.5;exitY=1;exitDx=0;exitDy=0;exitPerimeter=0;entryX=0.5;entryY=0;entryDx=0;entryDy=0;" parent="1" source="QZCH3a_QSV3moyp_Yn6d-4" target="QZCH3a_QSV3moyp_Yn6d-126" edge="1">
          <mxGeometry relative="1" as="geometry" />
        </mxCell>
        <mxCell id="QZCH3a_QSV3moyp_Yn6d-128" value="yes" style="edgeLabel;html=1;align=center;verticalAlign=middle;resizable=0;points=[];" parent="QZCH3a_QSV3moyp_Yn6d-127" vertex="1" connectable="0">
          <mxGeometry x="-0.0286" y="1" relative="1" as="geometry">
            <mxPoint x="-1" as="offset" />
          </mxGeometry>
        </mxCell>
        <mxCell id="QZCH3a_QSV3moyp_Yn6d-4" value="&lt;div style=&quot;&quot;&gt;&lt;pre style=&quot;font-family: &amp;quot;JetBrains Mono&amp;quot;, monospace;&quot;&gt;&lt;font style=&quot;&quot;&gt;i &amp;lt; len(self.sets)&lt;/font&gt;&lt;/pre&gt;&lt;/div&gt;" style="strokeWidth=2;html=1;shape=mxgraph.flowchart.decision;whiteSpace=wrap;fontSize=14;labelBackgroundColor=none;fontColor=default;" parent="1" vertex="1">
          <mxGeometry x="239.95" y="300" width="255" height="100" as="geometry" />
        </mxCell>
        <mxCell id="QZCH3a_QSV3moyp_Yn6d-5" value="&lt;div style=&quot;&quot;&gt;&lt;pre style=&quot;font-family: &amp;quot;JetBrains Mono&amp;quot;, monospace;&quot;&gt;&lt;pre style=&quot;font-family: &amp;quot;JetBrains Mono&amp;quot;, monospace;&quot;&gt;&lt;pre style=&quot;font-family: &amp;quot;JetBrains Mono&amp;quot;, monospace;&quot;&gt;&lt;pre style=&quot;font-family: &amp;quot;JetBrains Mono&amp;quot;, monospace;&quot;&gt;&lt;pre style=&quot;font-family: &amp;quot;JetBrains Mono&amp;quot;, monospace;&quot;&gt;&lt;pre style=&quot;font-family: &amp;quot;JetBrains Mono&amp;quot;, monospace;&quot;&gt;&lt;pre style=&quot;font-family: &amp;quot;JetBrains Mono&amp;quot;, monospace;&quot;&gt;&lt;pre style=&quot;font-family: &amp;quot;JetBrains Mono&amp;quot;, monospace;&quot;&gt;&lt;pre style=&quot;font-family: &amp;quot;JetBrains Mono&amp;quot;, monospace;&quot;&gt;&lt;font style=&quot;&quot;&gt;i = 0 &lt;/font&gt;&lt;/pre&gt;&lt;/pre&gt;&lt;/pre&gt;&lt;/pre&gt;&lt;/pre&gt;&lt;/pre&gt;&lt;/pre&gt;&lt;/pre&gt;&lt;/pre&gt;&lt;/div&gt;" style="rounded=0;whiteSpace=wrap;html=1;absoluteArcSize=1;arcSize=14;strokeWidth=2;fontSize=14;labelBackgroundColor=none;fontColor=default;" parent="1" vertex="1">
          <mxGeometry x="293.68" y="210" width="147.55" height="50" as="geometry" />
        </mxCell>
        <mxCell id="QZCH3a_QSV3moyp_Yn6d-7" style="edgeStyle=orthogonalEdgeStyle;rounded=0;orthogonalLoop=1;jettySize=auto;html=1;exitX=0.5;exitY=1;exitDx=0;exitDy=0;entryX=0.5;entryY=0;entryDx=0;entryDy=0;entryPerimeter=0;fontColor=default;" parent="1" source="QZCH3a_QSV3moyp_Yn6d-5" target="QZCH3a_QSV3moyp_Yn6d-4" edge="1">
          <mxGeometry relative="1" as="geometry" />
        </mxCell>
        <mxCell id="QZCH3a_QSV3moyp_Yn6d-24" style="edgeStyle=orthogonalEdgeStyle;rounded=0;orthogonalLoop=1;jettySize=auto;html=1;exitX=1;exitY=0.5;exitDx=0;exitDy=0;exitPerimeter=0;fontColor=default;" parent="1" source="QZCH3a_QSV3moyp_Yn6d-8" target="QZCH3a_QSV3moyp_Yn6d-15" edge="1">
          <mxGeometry relative="1" as="geometry" />
        </mxCell>
        <mxCell id="QZCH3a_QSV3moyp_Yn6d-25" value="yes" style="edgeLabel;html=1;align=center;verticalAlign=middle;resizable=0;points=[];fontColor=default;" parent="QZCH3a_QSV3moyp_Yn6d-24" vertex="1" connectable="0">
          <mxGeometry x="0.1818" relative="1" as="geometry">
            <mxPoint y="5" as="offset" />
          </mxGeometry>
        </mxCell>
        <mxCell id="QZCH3a_QSV3moyp_Yn6d-29" style="edgeStyle=orthogonalEdgeStyle;rounded=0;orthogonalLoop=1;jettySize=auto;html=1;exitX=0;exitY=0.5;exitDx=0;exitDy=0;exitPerimeter=0;fontColor=default;" parent="1" source="QZCH3a_QSV3moyp_Yn6d-8" target="QZCH3a_QSV3moyp_Yn6d-28" edge="1">
          <mxGeometry relative="1" as="geometry" />
        </mxCell>
        <mxCell id="QZCH3a_QSV3moyp_Yn6d-30" value="no" style="edgeLabel;html=1;align=center;verticalAlign=middle;resizable=0;points=[];fontColor=default;" parent="QZCH3a_QSV3moyp_Yn6d-29" vertex="1" connectable="0">
          <mxGeometry x="0.1127" y="-1" relative="1" as="geometry">
            <mxPoint as="offset" />
          </mxGeometry>
        </mxCell>
        <mxCell id="QZCH3a_QSV3moyp_Yn6d-8" value="&lt;div style=&quot;&quot;&gt;&lt;pre style=&quot;font-family: &amp;quot;JetBrains Mono&amp;quot;, monospace;&quot;&gt;&lt;font style=&quot;&quot;&gt;new_set_name == fuzzy_set.name&lt;/font&gt;&lt;/pre&gt;&lt;/div&gt;" style="strokeWidth=2;html=1;shape=mxgraph.flowchart.decision;whiteSpace=wrap;fontSize=14;labelBackgroundColor=none;fontColor=default;" parent="1" vertex="1">
          <mxGeometry x="214.95999999999998" y="565" width="305" height="100" as="geometry" />
        </mxCell>
        <mxCell id="QZCH3a_QSV3moyp_Yn6d-23" style="edgeStyle=orthogonalEdgeStyle;rounded=0;orthogonalLoop=1;jettySize=auto;html=1;exitX=0.5;exitY=1;exitDx=0;exitDy=0;fontColor=default;" parent="1" source="QZCH3a_QSV3moyp_Yn6d-12" target="QZCH3a_QSV3moyp_Yn6d-22" edge="1">
          <mxGeometry relative="1" as="geometry" />
        </mxCell>
        <mxCell id="QZCH3a_QSV3moyp_Yn6d-12" value="&lt;div style=&quot;&quot;&gt;&lt;pre style=&quot;font-family: &amp;quot;JetBrains Mono&amp;quot;, monospace;&quot;&gt;&lt;pre style=&quot;font-family: &amp;quot;JetBrains Mono&amp;quot;, monospace;&quot;&gt;&lt;pre style=&quot;font-family: &amp;quot;JetBrains Mono&amp;quot;, monospace;&quot;&gt;&lt;pre style=&quot;font-family: &amp;quot;JetBrains Mono&amp;quot;, monospace;&quot;&gt;&lt;pre style=&quot;font-family: &amp;quot;JetBrains Mono&amp;quot;, monospace;&quot;&gt;&lt;pre style=&quot;font-family: &amp;quot;JetBrains Mono&amp;quot;, monospace;&quot;&gt;&lt;pre style=&quot;font-family: &amp;quot;JetBrains Mono&amp;quot;, monospace;&quot;&gt;&lt;pre style=&quot;font-family: &amp;quot;JetBrains Mono&amp;quot;, monospace;&quot;&gt;&lt;pre style=&quot;font-family: &amp;quot;JetBrains Mono&amp;quot;, monospace;&quot;&gt;&lt;font style=&quot;&quot;&gt;return False&lt;/font&gt;&lt;/pre&gt;&lt;/pre&gt;&lt;/pre&gt;&lt;/pre&gt;&lt;/pre&gt;&lt;/pre&gt;&lt;/pre&gt;&lt;/pre&gt;&lt;/pre&gt;&lt;/div&gt;" style="rounded=0;whiteSpace=wrap;html=1;absoluteArcSize=1;arcSize=14;strokeWidth=2;fontSize=14;labelBackgroundColor=none;fontColor=default;" parent="1" vertex="1">
          <mxGeometry x="689.95" y="515" width="160" height="50" as="geometry" />
        </mxCell>
        <mxCell id="QZCH3a_QSV3moyp_Yn6d-21" style="edgeStyle=orthogonalEdgeStyle;rounded=0;orthogonalLoop=1;jettySize=auto;html=1;exitX=0.5;exitY=1;exitDx=0;exitDy=0;fontColor=default;" parent="1" source="QZCH3a_QSV3moyp_Yn6d-15" target="QZCH3a_QSV3moyp_Yn6d-20" edge="1">
          <mxGeometry relative="1" as="geometry" />
        </mxCell>
        <mxCell id="QZCH3a_QSV3moyp_Yn6d-15" value="&lt;div style=&quot;&quot;&gt;&lt;pre style=&quot;font-family: &amp;quot;JetBrains Mono&amp;quot;, monospace;&quot;&gt;&lt;pre style=&quot;font-family: &amp;quot;JetBrains Mono&amp;quot;, monospace;&quot;&gt;&lt;pre style=&quot;font-family: &amp;quot;JetBrains Mono&amp;quot;, monospace;&quot;&gt;&lt;pre style=&quot;font-family: &amp;quot;JetBrains Mono&amp;quot;, monospace;&quot;&gt;&lt;pre style=&quot;font-family: &amp;quot;JetBrains Mono&amp;quot;, monospace;&quot;&gt;&lt;pre style=&quot;font-family: &amp;quot;JetBrains Mono&amp;quot;, monospace;&quot;&gt;&lt;pre style=&quot;font-family: &amp;quot;JetBrains Mono&amp;quot;, monospace;&quot;&gt;&lt;pre style=&quot;font-family: &amp;quot;JetBrains Mono&amp;quot;, monospace;&quot;&gt;&lt;pre style=&quot;font-family: &amp;quot;JetBrains Mono&amp;quot;, monospace;&quot;&gt;&lt;font style=&quot;&quot;&gt;return True&lt;/font&gt;&lt;/pre&gt;&lt;/pre&gt;&lt;/pre&gt;&lt;/pre&gt;&lt;/pre&gt;&lt;/pre&gt;&lt;/pre&gt;&lt;/pre&gt;&lt;/pre&gt;&lt;/div&gt;" style="rounded=0;whiteSpace=wrap;html=1;absoluteArcSize=1;arcSize=14;strokeWidth=2;fontSize=14;labelBackgroundColor=none;fontColor=default;" parent="1" vertex="1">
          <mxGeometry x="459.95" y="680" width="160" height="50" as="geometry" />
        </mxCell>
        <mxCell id="QZCH3a_QSV3moyp_Yn6d-20" value="&lt;font style=&quot;font-size: 16px;&quot;&gt;end&lt;/font&gt;" style="strokeWidth=2;html=1;shape=mxgraph.flowchart.terminator;whiteSpace=wrap;fontColor=default;" parent="1" vertex="1">
          <mxGeometry x="482.45000000000005" y="770" width="115" height="60" as="geometry" />
        </mxCell>
        <mxCell id="QZCH3a_QSV3moyp_Yn6d-22" value="&lt;font style=&quot;font-size: 16px;&quot;&gt;end&lt;/font&gt;" style="strokeWidth=2;html=1;shape=mxgraph.flowchart.terminator;whiteSpace=wrap;fontColor=default;" parent="1" vertex="1">
          <mxGeometry x="712.45" y="620" width="115" height="60" as="geometry" />
        </mxCell>
        <mxCell id="QZCH3a_QSV3moyp_Yn6d-31" style="edgeStyle=orthogonalEdgeStyle;rounded=0;orthogonalLoop=1;jettySize=auto;html=1;fontColor=default;exitX=0.5;exitY=1;exitDx=0;exitDy=0;" parent="1" source="QZCH3a_QSV3moyp_Yn6d-28" edge="1">
          <mxGeometry relative="1" as="geometry">
            <mxPoint x="366.95" y="280" as="targetPoint" />
            <mxPoint x="196.9564516129032" y="680" as="sourcePoint" />
            <Array as="points">
              <mxPoint x="190" y="760" />
              <mxPoint x="67" y="760" />
              <mxPoint x="67" y="280" />
            </Array>
          </mxGeometry>
        </mxCell>
        <mxCell id="QZCH3a_QSV3moyp_Yn6d-28" value="&lt;div style=&quot;&quot;&gt;&lt;pre style=&quot;font-family: &amp;quot;JetBrains Mono&amp;quot;, monospace;&quot;&gt;&lt;pre style=&quot;font-family: &amp;quot;JetBrains Mono&amp;quot;, monospace;&quot;&gt;&lt;pre style=&quot;font-family: &amp;quot;JetBrains Mono&amp;quot;, monospace;&quot;&gt;&lt;pre style=&quot;font-family: &amp;quot;JetBrains Mono&amp;quot;, monospace;&quot;&gt;&lt;pre style=&quot;font-family: &amp;quot;JetBrains Mono&amp;quot;, monospace;&quot;&gt;&lt;pre style=&quot;font-family: &amp;quot;JetBrains Mono&amp;quot;, monospace;&quot;&gt;&lt;pre style=&quot;font-family: &amp;quot;JetBrains Mono&amp;quot;, monospace;&quot;&gt;&lt;pre style=&quot;font-family: &amp;quot;JetBrains Mono&amp;quot;, monospace;&quot;&gt;&lt;pre style=&quot;font-family: &amp;quot;JetBrains Mono&amp;quot;, monospace;&quot;&gt;&lt;font style=&quot;&quot;&gt;i += 1&lt;/font&gt;&lt;/pre&gt;&lt;/pre&gt;&lt;/pre&gt;&lt;/pre&gt;&lt;/pre&gt;&lt;/pre&gt;&lt;/pre&gt;&lt;/pre&gt;&lt;/pre&gt;&lt;/div&gt;" style="rounded=0;whiteSpace=wrap;html=1;absoluteArcSize=1;arcSize=14;strokeWidth=2;fontSize=14;labelBackgroundColor=none;fontColor=default;" parent="1" vertex="1">
          <mxGeometry x="109.95" y="680" width="160" height="50" as="geometry" />
        </mxCell>
        <mxCell id="QZCH3a_QSV3moyp_Yn6d-32" value="&lt;div style=&quot;background-color: rgb(30, 31, 34);&quot;&gt;&lt;pre style=&quot;font-family:&#39;JetBrains Mono&#39;,monospace;font-size:9.8pt;&quot;&gt;&lt;span style=&quot;&quot;&gt;def &lt;/span&gt;&lt;span style=&quot;&quot;&gt;__init__&lt;/span&gt;(&lt;span style=&quot;&quot;&gt;self&lt;/span&gt;)&lt;/pre&gt;&lt;/div&gt;" style="text;html=1;align=center;verticalAlign=middle;resizable=0;points=[];autosize=1;strokeColor=none;fillColor=none;fontColor=default;" parent="1" vertex="1">
          <mxGeometry x="1156.23" y="40" width="150" height="60" as="geometry" />
        </mxCell>
        <mxCell id="QZCH3a_QSV3moyp_Yn6d-36" style="edgeStyle=orthogonalEdgeStyle;rounded=0;orthogonalLoop=1;jettySize=auto;html=1;exitX=0.5;exitY=1;exitDx=0;exitDy=0;exitPerimeter=0;entryX=0.5;entryY=0;entryDx=0;entryDy=0;fontColor=default;" parent="1" source="QZCH3a_QSV3moyp_Yn6d-33" target="QZCH3a_QSV3moyp_Yn6d-34" edge="1">
          <mxGeometry relative="1" as="geometry" />
        </mxCell>
        <mxCell id="QZCH3a_QSV3moyp_Yn6d-33" value="&lt;font style=&quot;font-size: 16px;&quot;&gt;begin&lt;/font&gt;" style="strokeWidth=2;html=1;shape=mxgraph.flowchart.terminator;whiteSpace=wrap;fontColor=default;" parent="1" vertex="1">
          <mxGeometry x="1182.51" y="120" width="115" height="60" as="geometry" />
        </mxCell>
        <mxCell id="QZCH3a_QSV3moyp_Yn6d-34" value="&lt;div style=&quot;&quot;&gt;&lt;pre style=&quot;font-family: &amp;quot;JetBrains Mono&amp;quot;, monospace;&quot;&gt;&lt;pre style=&quot;font-family: &amp;quot;JetBrains Mono&amp;quot;, monospace;&quot;&gt;&lt;pre style=&quot;font-family: &amp;quot;JetBrains Mono&amp;quot;, monospace;&quot;&gt;&lt;pre style=&quot;font-family: &amp;quot;JetBrains Mono&amp;quot;, monospace;&quot;&gt;&lt;pre style=&quot;font-family: &amp;quot;JetBrains Mono&amp;quot;, monospace;&quot;&gt;&lt;pre style=&quot;font-family: &amp;quot;JetBrains Mono&amp;quot;, monospace;&quot;&gt;&lt;pre style=&quot;font-family: &amp;quot;JetBrains Mono&amp;quot;, monospace;&quot;&gt;&lt;pre style=&quot;font-family: &amp;quot;JetBrains Mono&amp;quot;, monospace;&quot;&gt;&lt;pre style=&quot;font-family: &amp;quot;JetBrains Mono&amp;quot;, monospace;&quot;&gt;&lt;font style=&quot;&quot;&gt;self.sets = []&lt;/font&gt;&lt;/pre&gt;&lt;/pre&gt;&lt;/pre&gt;&lt;/pre&gt;&lt;/pre&gt;&lt;/pre&gt;&lt;/pre&gt;&lt;/pre&gt;&lt;/pre&gt;&lt;/div&gt;" style="rounded=0;whiteSpace=wrap;html=1;absoluteArcSize=1;arcSize=14;strokeWidth=2;fontSize=14;labelBackgroundColor=none;fontColor=default;" parent="1" vertex="1">
          <mxGeometry x="1166.23" y="230" width="147.55" height="50" as="geometry" />
        </mxCell>
        <mxCell id="QZCH3a_QSV3moyp_Yn6d-35" value="&lt;div style=&quot;&quot;&gt;&lt;pre style=&quot;font-family: &amp;quot;JetBrains Mono&amp;quot;, monospace;&quot;&gt;&lt;pre style=&quot;font-family: &amp;quot;JetBrains Mono&amp;quot;, monospace;&quot;&gt;&lt;pre style=&quot;font-family: &amp;quot;JetBrains Mono&amp;quot;, monospace;&quot;&gt;&lt;pre style=&quot;font-family: &amp;quot;JetBrains Mono&amp;quot;, monospace;&quot;&gt;&lt;pre style=&quot;font-family: &amp;quot;JetBrains Mono&amp;quot;, monospace;&quot;&gt;&lt;pre style=&quot;font-family: &amp;quot;JetBrains Mono&amp;quot;, monospace;&quot;&gt;&lt;pre style=&quot;font-family: &amp;quot;JetBrains Mono&amp;quot;, monospace;&quot;&gt;&lt;pre style=&quot;font-family: &amp;quot;JetBrains Mono&amp;quot;, monospace;&quot;&gt;&lt;pre style=&quot;font-family: &amp;quot;JetBrains Mono&amp;quot;, monospace;&quot;&gt;&lt;font style=&quot;&quot;&gt;self.implications = []&lt;/font&gt;&lt;/pre&gt;&lt;/pre&gt;&lt;/pre&gt;&lt;/pre&gt;&lt;/pre&gt;&lt;/pre&gt;&lt;/pre&gt;&lt;/pre&gt;&lt;/pre&gt;&lt;/div&gt;" style="rounded=0;whiteSpace=wrap;html=1;absoluteArcSize=1;arcSize=14;strokeWidth=2;fontSize=14;labelBackgroundColor=none;fontColor=default;" parent="1" vertex="1">
          <mxGeometry x="1140" y="320" width="200" height="50" as="geometry" />
        </mxCell>
        <mxCell id="QZCH3a_QSV3moyp_Yn6d-37" style="edgeStyle=orthogonalEdgeStyle;rounded=0;orthogonalLoop=1;jettySize=auto;html=1;exitX=0.5;exitY=1;exitDx=0;exitDy=0;entryX=0.506;entryY=-0.053;entryDx=0;entryDy=0;entryPerimeter=0;fontColor=default;" parent="1" source="QZCH3a_QSV3moyp_Yn6d-34" target="QZCH3a_QSV3moyp_Yn6d-35" edge="1">
          <mxGeometry relative="1" as="geometry" />
        </mxCell>
        <mxCell id="QZCH3a_QSV3moyp_Yn6d-38" value="&lt;font style=&quot;font-size: 16px;&quot;&gt;end&lt;/font&gt;" style="strokeWidth=2;html=1;shape=mxgraph.flowchart.terminator;whiteSpace=wrap;fontColor=default;" parent="1" vertex="1">
          <mxGeometry x="1182.5" y="410" width="115" height="60" as="geometry" />
        </mxCell>
        <mxCell id="QZCH3a_QSV3moyp_Yn6d-39" style="edgeStyle=orthogonalEdgeStyle;rounded=0;orthogonalLoop=1;jettySize=auto;html=1;exitX=0.5;exitY=1;exitDx=0;exitDy=0;entryX=0.5;entryY=0;entryDx=0;entryDy=0;entryPerimeter=0;fontColor=default;" parent="1" source="QZCH3a_QSV3moyp_Yn6d-35" target="QZCH3a_QSV3moyp_Yn6d-38" edge="1">
          <mxGeometry relative="1" as="geometry" />
        </mxCell>
        <mxCell id="QZCH3a_QSV3moyp_Yn6d-40" value="&lt;div style=&quot;background-color: rgb(30, 31, 34);&quot;&gt;&lt;pre style=&quot;font-family:&#39;JetBrains Mono&#39;,monospace;font-size:9.8pt;&quot;&gt;&lt;div&gt;&lt;pre style=&quot;font-family:&#39;JetBrains Mono&#39;,monospace;font-size:9.8pt;&quot;&gt;&lt;span style=&quot;&quot;&gt;def &lt;/span&gt;&lt;span style=&quot;&quot;&gt;__check_if_already_has_implication&lt;/span&gt;(&lt;span style=&quot;&quot;&gt;self&lt;/span&gt;, new_implication :&lt;span style=&quot;&quot;&gt;ImplicationScheme&lt;/span&gt;)&lt;/pre&gt;&lt;/div&gt;&lt;/pre&gt;&lt;/div&gt;" style="text;html=1;align=center;verticalAlign=middle;resizable=0;points=[];autosize=1;strokeColor=none;fillColor=none;fontColor=default;" parent="1" vertex="1">
          <mxGeometry x="117.46" y="1160" width="600" height="60" as="geometry" />
        </mxCell>
        <mxCell id="QZCH3a_QSV3moyp_Yn6d-41" style="edgeStyle=orthogonalEdgeStyle;rounded=0;orthogonalLoop=1;jettySize=auto;html=1;exitX=0.5;exitY=1;exitDx=0;exitDy=0;exitPerimeter=0;entryX=0.5;entryY=0;entryDx=0;entryDy=0;fontColor=default;" parent="1" source="QZCH3a_QSV3moyp_Yn6d-42" target="QZCH3a_QSV3moyp_Yn6d-48" edge="1">
          <mxGeometry relative="1" as="geometry" />
        </mxCell>
        <mxCell id="QZCH3a_QSV3moyp_Yn6d-42" value="&lt;font style=&quot;font-size: 16px;&quot;&gt;begin&lt;/font&gt;" style="strokeWidth=2;html=1;shape=mxgraph.flowchart.terminator;whiteSpace=wrap;fontColor=default;" parent="1" vertex="1">
          <mxGeometry x="359.95000000000005" y="1250" width="115" height="60" as="geometry" />
        </mxCell>
        <mxCell id="QZCH3a_QSV3moyp_Yn6d-43" style="edgeStyle=orthogonalEdgeStyle;rounded=0;orthogonalLoop=1;jettySize=auto;html=1;exitX=0.5;exitY=1;exitDx=0;exitDy=0;exitPerimeter=0;fontColor=default;entryX=0.5;entryY=0;entryDx=0;entryDy=0;" parent="1" source="QZCH3a_QSV3moyp_Yn6d-47" target="QZCH3a_QSV3moyp_Yn6d-64" edge="1">
          <mxGeometry relative="1" as="geometry">
            <mxPoint x="420" y="1610" as="targetPoint" />
          </mxGeometry>
        </mxCell>
        <mxCell id="QZCH3a_QSV3moyp_Yn6d-44" value="yes" style="edgeLabel;html=1;align=center;verticalAlign=middle;resizable=0;points=[];fontColor=default;" parent="QZCH3a_QSV3moyp_Yn6d-43" vertex="1" connectable="0">
          <mxGeometry x="0.0296" y="-2" relative="1" as="geometry">
            <mxPoint as="offset" />
          </mxGeometry>
        </mxCell>
        <mxCell id="QZCH3a_QSV3moyp_Yn6d-45" style="edgeStyle=orthogonalEdgeStyle;rounded=0;orthogonalLoop=1;jettySize=auto;html=1;exitX=1;exitY=0.5;exitDx=0;exitDy=0;exitPerimeter=0;fontColor=default;" parent="1" source="QZCH3a_QSV3moyp_Yn6d-47" target="QZCH3a_QSV3moyp_Yn6d-56" edge="1">
          <mxGeometry relative="1" as="geometry" />
        </mxCell>
        <mxCell id="QZCH3a_QSV3moyp_Yn6d-46" value="no" style="edgeLabel;html=1;align=center;verticalAlign=middle;resizable=0;points=[];fontColor=default;" parent="QZCH3a_QSV3moyp_Yn6d-45" vertex="1" connectable="0">
          <mxGeometry x="-0.4481" y="-1" relative="1" as="geometry">
            <mxPoint as="offset" />
          </mxGeometry>
        </mxCell>
        <mxCell id="QZCH3a_QSV3moyp_Yn6d-47" value="&lt;div style=&quot;&quot;&gt;&lt;pre style=&quot;font-family: &amp;quot;JetBrains Mono&amp;quot;, monospace;&quot;&gt;&lt;font style=&quot;&quot;&gt;i &amp;lt; len(self.implications)&lt;/font&gt;&lt;/pre&gt;&lt;/div&gt;" style="strokeWidth=2;html=1;shape=mxgraph.flowchart.decision;whiteSpace=wrap;fontSize=14;labelBackgroundColor=none;fontColor=default;" parent="1" vertex="1">
          <mxGeometry x="289.95" y="1440" width="255" height="100" as="geometry" />
        </mxCell>
        <mxCell id="QZCH3a_QSV3moyp_Yn6d-48" value="&lt;div style=&quot;&quot;&gt;&lt;pre style=&quot;font-family: &amp;quot;JetBrains Mono&amp;quot;, monospace;&quot;&gt;&lt;pre style=&quot;font-family: &amp;quot;JetBrains Mono&amp;quot;, monospace;&quot;&gt;&lt;pre style=&quot;font-family: &amp;quot;JetBrains Mono&amp;quot;, monospace;&quot;&gt;&lt;pre style=&quot;font-family: &amp;quot;JetBrains Mono&amp;quot;, monospace;&quot;&gt;&lt;pre style=&quot;font-family: &amp;quot;JetBrains Mono&amp;quot;, monospace;&quot;&gt;&lt;pre style=&quot;font-family: &amp;quot;JetBrains Mono&amp;quot;, monospace;&quot;&gt;&lt;pre style=&quot;font-family: &amp;quot;JetBrains Mono&amp;quot;, monospace;&quot;&gt;&lt;pre style=&quot;font-family: &amp;quot;JetBrains Mono&amp;quot;, monospace;&quot;&gt;&lt;pre style=&quot;font-family: &amp;quot;JetBrains Mono&amp;quot;, monospace;&quot;&gt;&lt;font style=&quot;&quot;&gt;i = 0 &lt;/font&gt;&lt;/pre&gt;&lt;/pre&gt;&lt;/pre&gt;&lt;/pre&gt;&lt;/pre&gt;&lt;/pre&gt;&lt;/pre&gt;&lt;/pre&gt;&lt;/pre&gt;&lt;/div&gt;" style="rounded=0;whiteSpace=wrap;html=1;absoluteArcSize=1;arcSize=14;strokeWidth=2;fontSize=14;labelBackgroundColor=none;fontColor=default;" parent="1" vertex="1">
          <mxGeometry x="343.68" y="1350" width="147.55" height="50" as="geometry" />
        </mxCell>
        <mxCell id="QZCH3a_QSV3moyp_Yn6d-49" style="edgeStyle=orthogonalEdgeStyle;rounded=0;orthogonalLoop=1;jettySize=auto;html=1;exitX=0.5;exitY=1;exitDx=0;exitDy=0;entryX=0.5;entryY=0;entryDx=0;entryDy=0;entryPerimeter=0;fontColor=default;" parent="1" source="QZCH3a_QSV3moyp_Yn6d-48" target="QZCH3a_QSV3moyp_Yn6d-47" edge="1">
          <mxGeometry relative="1" as="geometry" />
        </mxCell>
        <mxCell id="QZCH3a_QSV3moyp_Yn6d-55" style="edgeStyle=orthogonalEdgeStyle;rounded=0;orthogonalLoop=1;jettySize=auto;html=1;exitX=0.5;exitY=1;exitDx=0;exitDy=0;fontColor=default;" parent="1" source="QZCH3a_QSV3moyp_Yn6d-56" target="QZCH3a_QSV3moyp_Yn6d-60" edge="1">
          <mxGeometry relative="1" as="geometry" />
        </mxCell>
        <mxCell id="QZCH3a_QSV3moyp_Yn6d-56" value="&lt;div style=&quot;&quot;&gt;&lt;pre style=&quot;font-family: &amp;quot;JetBrains Mono&amp;quot;, monospace;&quot;&gt;&lt;pre style=&quot;font-family: &amp;quot;JetBrains Mono&amp;quot;, monospace;&quot;&gt;&lt;pre style=&quot;font-family: &amp;quot;JetBrains Mono&amp;quot;, monospace;&quot;&gt;&lt;pre style=&quot;font-family: &amp;quot;JetBrains Mono&amp;quot;, monospace;&quot;&gt;&lt;pre style=&quot;font-family: &amp;quot;JetBrains Mono&amp;quot;, monospace;&quot;&gt;&lt;pre style=&quot;font-family: &amp;quot;JetBrains Mono&amp;quot;, monospace;&quot;&gt;&lt;pre style=&quot;font-family: &amp;quot;JetBrains Mono&amp;quot;, monospace;&quot;&gt;&lt;pre style=&quot;font-family: &amp;quot;JetBrains Mono&amp;quot;, monospace;&quot;&gt;&lt;pre style=&quot;font-family: &amp;quot;JetBrains Mono&amp;quot;, monospace;&quot;&gt;&lt;font style=&quot;&quot;&gt;return False&lt;/font&gt;&lt;/pre&gt;&lt;/pre&gt;&lt;/pre&gt;&lt;/pre&gt;&lt;/pre&gt;&lt;/pre&gt;&lt;/pre&gt;&lt;/pre&gt;&lt;/pre&gt;&lt;/div&gt;" style="rounded=0;whiteSpace=wrap;html=1;absoluteArcSize=1;arcSize=14;strokeWidth=2;fontSize=14;labelBackgroundColor=none;fontColor=default;" parent="1" vertex="1">
          <mxGeometry x="739.95" y="1655" width="160" height="50" as="geometry" />
        </mxCell>
        <mxCell id="QZCH3a_QSV3moyp_Yn6d-57" style="edgeStyle=orthogonalEdgeStyle;rounded=0;orthogonalLoop=1;jettySize=auto;html=1;exitX=0.5;exitY=1;exitDx=0;exitDy=0;fontColor=default;" parent="1" source="QZCH3a_QSV3moyp_Yn6d-58" target="QZCH3a_QSV3moyp_Yn6d-59" edge="1">
          <mxGeometry relative="1" as="geometry" />
        </mxCell>
        <mxCell id="QZCH3a_QSV3moyp_Yn6d-58" value="&lt;div style=&quot;&quot;&gt;&lt;pre style=&quot;font-family: &amp;quot;JetBrains Mono&amp;quot;, monospace;&quot;&gt;&lt;pre style=&quot;font-family: &amp;quot;JetBrains Mono&amp;quot;, monospace;&quot;&gt;&lt;pre style=&quot;font-family: &amp;quot;JetBrains Mono&amp;quot;, monospace;&quot;&gt;&lt;pre style=&quot;font-family: &amp;quot;JetBrains Mono&amp;quot;, monospace;&quot;&gt;&lt;pre style=&quot;font-family: &amp;quot;JetBrains Mono&amp;quot;, monospace;&quot;&gt;&lt;pre style=&quot;font-family: &amp;quot;JetBrains Mono&amp;quot;, monospace;&quot;&gt;&lt;pre style=&quot;font-family: &amp;quot;JetBrains Mono&amp;quot;, monospace;&quot;&gt;&lt;pre style=&quot;font-family: &amp;quot;JetBrains Mono&amp;quot;, monospace;&quot;&gt;&lt;pre style=&quot;font-family: &amp;quot;JetBrains Mono&amp;quot;, monospace;&quot;&gt;&lt;font style=&quot;&quot;&gt;return True&lt;/font&gt;&lt;/pre&gt;&lt;/pre&gt;&lt;/pre&gt;&lt;/pre&gt;&lt;/pre&gt;&lt;/pre&gt;&lt;/pre&gt;&lt;/pre&gt;&lt;/pre&gt;&lt;/div&gt;" style="rounded=0;whiteSpace=wrap;html=1;absoluteArcSize=1;arcSize=14;strokeWidth=2;fontSize=14;labelBackgroundColor=none;fontColor=default;" parent="1" vertex="1">
          <mxGeometry x="337.45000000000005" y="1970" width="160" height="50" as="geometry" />
        </mxCell>
        <mxCell id="QZCH3a_QSV3moyp_Yn6d-59" value="&lt;font style=&quot;font-size: 16px;&quot;&gt;end&lt;/font&gt;" style="strokeWidth=2;html=1;shape=mxgraph.flowchart.terminator;whiteSpace=wrap;fontColor=default;" parent="1" vertex="1">
          <mxGeometry x="359.95000000000005" y="2070" width="115" height="60" as="geometry" />
        </mxCell>
        <mxCell id="QZCH3a_QSV3moyp_Yn6d-60" value="&lt;font style=&quot;font-size: 16px;&quot;&gt;end&lt;/font&gt;" style="strokeWidth=2;html=1;shape=mxgraph.flowchart.terminator;whiteSpace=wrap;fontColor=default;" parent="1" vertex="1">
          <mxGeometry x="762.45" y="1760" width="115" height="60" as="geometry" />
        </mxCell>
        <mxCell id="QZCH3a_QSV3moyp_Yn6d-71" style="edgeStyle=orthogonalEdgeStyle;rounded=0;orthogonalLoop=1;jettySize=auto;html=1;exitX=0.5;exitY=1;exitDx=0;exitDy=0;" parent="1" source="QZCH3a_QSV3moyp_Yn6d-62" edge="1">
          <mxGeometry relative="1" as="geometry">
            <mxPoint x="417" y="1420" as="targetPoint" />
            <mxPoint x="196.95" y="2015" as="sourcePoint" />
            <Array as="points">
              <mxPoint x="140" y="2035" />
              <mxPoint x="40" y="2035" />
              <mxPoint x="40" y="1420" />
            </Array>
          </mxGeometry>
        </mxCell>
        <mxCell id="QZCH3a_QSV3moyp_Yn6d-62" value="&lt;div style=&quot;&quot;&gt;&lt;pre style=&quot;font-family: &amp;quot;JetBrains Mono&amp;quot;, monospace;&quot;&gt;&lt;pre style=&quot;font-family: &amp;quot;JetBrains Mono&amp;quot;, monospace;&quot;&gt;&lt;pre style=&quot;font-family: &amp;quot;JetBrains Mono&amp;quot;, monospace;&quot;&gt;&lt;pre style=&quot;font-family: &amp;quot;JetBrains Mono&amp;quot;, monospace;&quot;&gt;&lt;pre style=&quot;font-family: &amp;quot;JetBrains Mono&amp;quot;, monospace;&quot;&gt;&lt;pre style=&quot;font-family: &amp;quot;JetBrains Mono&amp;quot;, monospace;&quot;&gt;&lt;pre style=&quot;font-family: &amp;quot;JetBrains Mono&amp;quot;, monospace;&quot;&gt;&lt;pre style=&quot;font-family: &amp;quot;JetBrains Mono&amp;quot;, monospace;&quot;&gt;&lt;pre style=&quot;font-family: &amp;quot;JetBrains Mono&amp;quot;, monospace;&quot;&gt;&lt;font style=&quot;&quot;&gt;i += 1&lt;/font&gt;&lt;/pre&gt;&lt;/pre&gt;&lt;/pre&gt;&lt;/pre&gt;&lt;/pre&gt;&lt;/pre&gt;&lt;/pre&gt;&lt;/pre&gt;&lt;/pre&gt;&lt;/div&gt;" style="rounded=0;whiteSpace=wrap;html=1;absoluteArcSize=1;arcSize=14;strokeWidth=2;fontSize=14;labelBackgroundColor=none;fontColor=default;" parent="1" vertex="1">
          <mxGeometry x="60" y="1955" width="160" height="50" as="geometry" />
        </mxCell>
        <mxCell id="QZCH3a_QSV3moyp_Yn6d-64" value="&lt;div style=&quot;&quot;&gt;&lt;pre style=&quot;&quot;&gt;&lt;pre style=&quot;&quot;&gt;&lt;pre style=&quot;&quot;&gt;&lt;pre style=&quot;&quot;&gt;&lt;pre style=&quot;&quot;&gt;&lt;pre style=&quot;&quot;&gt;&lt;pre style=&quot;&quot;&gt;&lt;pre style=&quot;&quot;&gt;&lt;pre style=&quot;&quot;&gt;&lt;font style=&quot;&quot;&gt;&lt;font face=&quot;JetBrains Mono, monospace&quot; style=&quot;&quot;&gt;fuzzy_implication = &lt;/font&gt;self.implications[i]&lt;/font&gt;&lt;font face=&quot;JetBrains Mono, monospace&quot;&gt;&lt;/font&gt;&lt;/pre&gt;&lt;/pre&gt;&lt;/pre&gt;&lt;/pre&gt;&lt;/pre&gt;&lt;/pre&gt;&lt;/pre&gt;&lt;/pre&gt;&lt;/pre&gt;&lt;/div&gt;" style="rounded=0;whiteSpace=wrap;html=1;absoluteArcSize=1;arcSize=14;strokeWidth=2;fontSize=14;labelBackgroundColor=none;fontColor=default;" parent="1" vertex="1">
          <mxGeometry x="182.42999999999998" y="1610" width="470.05" height="70" as="geometry" />
        </mxCell>
        <mxCell id="QZCH3a_QSV3moyp_Yn6d-67" style="edgeStyle=orthogonalEdgeStyle;rounded=0;orthogonalLoop=1;jettySize=auto;html=1;exitX=0.5;exitY=1;exitDx=0;exitDy=0;exitPerimeter=0;" parent="1" source="QZCH3a_QSV3moyp_Yn6d-65" target="QZCH3a_QSV3moyp_Yn6d-58" edge="1">
          <mxGeometry relative="1" as="geometry" />
        </mxCell>
        <mxCell id="QZCH3a_QSV3moyp_Yn6d-68" value="yes" style="edgeLabel;html=1;align=center;verticalAlign=middle;resizable=0;points=[];" parent="QZCH3a_QSV3moyp_Yn6d-67" vertex="1" connectable="0">
          <mxGeometry x="-0.019" y="-1" relative="1" as="geometry">
            <mxPoint as="offset" />
          </mxGeometry>
        </mxCell>
        <mxCell id="QZCH3a_QSV3moyp_Yn6d-69" style="edgeStyle=orthogonalEdgeStyle;rounded=0;orthogonalLoop=1;jettySize=auto;html=1;exitX=0;exitY=0.5;exitDx=0;exitDy=0;exitPerimeter=0;" parent="1" source="QZCH3a_QSV3moyp_Yn6d-65" target="QZCH3a_QSV3moyp_Yn6d-62" edge="1">
          <mxGeometry relative="1" as="geometry" />
        </mxCell>
        <mxCell id="QZCH3a_QSV3moyp_Yn6d-70" value="no" style="edgeLabel;html=1;align=center;verticalAlign=middle;resizable=0;points=[];" parent="QZCH3a_QSV3moyp_Yn6d-69" vertex="1" connectable="0">
          <mxGeometry x="0.2666" y="-1" relative="1" as="geometry">
            <mxPoint as="offset" />
          </mxGeometry>
        </mxCell>
        <mxCell id="QZCH3a_QSV3moyp_Yn6d-65" value="&lt;div style=&quot;&quot;&gt;&lt;pre style=&quot;font-family: &amp;quot;JetBrains Mono&amp;quot;, monospace;&quot;&gt;&lt;font style=&quot;&quot;&gt;new_implication.first == fuzzy_implication.first and&lt;br&gt;new_implication.second == fuzzy_implication.second&lt;/font&gt;&lt;/pre&gt;&lt;/div&gt;" style="strokeWidth=2;html=1;shape=mxgraph.flowchart.decision;whiteSpace=wrap;fontSize=14;labelBackgroundColor=none;fontColor=default;" parent="1" vertex="1">
          <mxGeometry x="167.4" y="1720" width="500.1" height="160" as="geometry" />
        </mxCell>
        <mxCell id="QZCH3a_QSV3moyp_Yn6d-66" style="edgeStyle=orthogonalEdgeStyle;rounded=0;orthogonalLoop=1;jettySize=auto;html=1;exitX=0.5;exitY=1;exitDx=0;exitDy=0;entryX=0.5;entryY=0;entryDx=0;entryDy=0;entryPerimeter=0;" parent="1" source="QZCH3a_QSV3moyp_Yn6d-64" target="QZCH3a_QSV3moyp_Yn6d-65" edge="1">
          <mxGeometry relative="1" as="geometry" />
        </mxCell>
        <mxCell id="QZCH3a_QSV3moyp_Yn6d-72" value="&lt;div style=&quot;background-color: rgb(30, 31, 34);&quot;&gt;&lt;pre style=&quot;font-family:&#39;JetBrains Mono&#39;,monospace;font-size:9.8pt;&quot;&gt;&lt;div style=&quot;color: rgb(188, 190, 196);&quot;&gt;&lt;pre style=&quot;font-family:&#39;JetBrains Mono&#39;,monospace;font-size:9.8pt;&quot;&gt;&lt;span style=&quot;color:#cf8e6d;&quot;&gt;def &lt;/span&gt;&lt;span style=&quot;color:#56a8f5;&quot;&gt;add_set&lt;/span&gt;(&lt;span style=&quot;color:#94558d;&quot;&gt;self&lt;/span&gt;, new_set :&lt;span style=&quot;color:#a26c8f;&quot;&gt;FuzzySet&lt;/span&gt;)&lt;/pre&gt;&lt;/div&gt;&lt;/pre&gt;&lt;/div&gt;" style="text;html=1;align=center;verticalAlign=middle;resizable=0;points=[];autosize=1;strokeColor=none;fillColor=none;fontColor=default;" parent="1" vertex="1">
          <mxGeometry x="1559.18" y="1220" width="280" height="60" as="geometry" />
        </mxCell>
        <mxCell id="QZCH3a_QSV3moyp_Yn6d-74" value="&lt;font style=&quot;font-size: 16px;&quot;&gt;begin&lt;/font&gt;" style="strokeWidth=2;html=1;shape=mxgraph.flowchart.terminator;whiteSpace=wrap;fontColor=default;" parent="1" vertex="1">
          <mxGeometry x="1659.18" y="1310" width="115" height="60" as="geometry" />
        </mxCell>
        <mxCell id="QZCH3a_QSV3moyp_Yn6d-98" style="edgeStyle=orthogonalEdgeStyle;rounded=0;orthogonalLoop=1;jettySize=auto;html=1;exitX=0;exitY=0.5;exitDx=0;exitDy=0;exitPerimeter=0;" parent="1" source="QZCH3a_QSV3moyp_Yn6d-79" target="QZCH3a_QSV3moyp_Yn6d-90" edge="1">
          <mxGeometry relative="1" as="geometry" />
        </mxCell>
        <mxCell id="QZCH3a_QSV3moyp_Yn6d-99" value="yes" style="edgeLabel;html=1;align=center;verticalAlign=middle;resizable=0;points=[];" parent="QZCH3a_QSV3moyp_Yn6d-98" vertex="1" connectable="0">
          <mxGeometry x="0.2511" y="-2" relative="1" as="geometry">
            <mxPoint as="offset" />
          </mxGeometry>
        </mxCell>
        <mxCell id="QZCH3a_QSV3moyp_Yn6d-100" style="edgeStyle=orthogonalEdgeStyle;rounded=0;orthogonalLoop=1;jettySize=auto;html=1;exitX=1;exitY=0.5;exitDx=0;exitDy=0;exitPerimeter=0;" parent="1" source="QZCH3a_QSV3moyp_Yn6d-79" target="QZCH3a_QSV3moyp_Yn6d-88" edge="1">
          <mxGeometry relative="1" as="geometry" />
        </mxCell>
        <mxCell id="QZCH3a_QSV3moyp_Yn6d-101" value="no" style="edgeLabel;html=1;align=center;verticalAlign=middle;resizable=0;points=[];" parent="QZCH3a_QSV3moyp_Yn6d-100" vertex="1" connectable="0">
          <mxGeometry x="-0.3489" y="-2" relative="1" as="geometry">
            <mxPoint as="offset" />
          </mxGeometry>
        </mxCell>
        <mxCell id="QZCH3a_QSV3moyp_Yn6d-79" value="&lt;div style=&quot;&quot;&gt;&lt;pre style=&quot;font-family: &amp;quot;JetBrains Mono&amp;quot;, monospace;&quot;&gt;&lt;font style=&quot;&quot;&gt;self.__check_if_already_has_set(new_set.name)&lt;/font&gt;&lt;/pre&gt;&lt;/div&gt;" style="strokeWidth=2;html=1;shape=mxgraph.flowchart.decision;whiteSpace=wrap;fontSize=14;labelBackgroundColor=none;fontColor=default;" parent="1" vertex="1">
          <mxGeometry x="1516.27" y="1410" width="400.82" height="120" as="geometry" />
        </mxCell>
        <mxCell id="QZCH3a_QSV3moyp_Yn6d-87" style="edgeStyle=orthogonalEdgeStyle;rounded=0;orthogonalLoop=1;jettySize=auto;html=1;exitX=0.5;exitY=1;exitDx=0;exitDy=0;fontColor=default;" parent="1" source="QZCH3a_QSV3moyp_Yn6d-88" target="QZCH3a_QSV3moyp_Yn6d-92" edge="1">
          <mxGeometry relative="1" as="geometry" />
        </mxCell>
        <mxCell id="QZCH3a_QSV3moyp_Yn6d-88" value="&lt;div style=&quot;&quot;&gt;&lt;pre style=&quot;font-family: &amp;quot;JetBrains Mono&amp;quot;, monospace;&quot;&gt;&lt;pre style=&quot;font-family: &amp;quot;JetBrains Mono&amp;quot;, monospace;&quot;&gt;&lt;pre style=&quot;font-family: &amp;quot;JetBrains Mono&amp;quot;, monospace;&quot;&gt;&lt;pre style=&quot;font-family: &amp;quot;JetBrains Mono&amp;quot;, monospace;&quot;&gt;&lt;pre style=&quot;font-family: &amp;quot;JetBrains Mono&amp;quot;, monospace;&quot;&gt;&lt;pre style=&quot;font-family: &amp;quot;JetBrains Mono&amp;quot;, monospace;&quot;&gt;&lt;pre style=&quot;font-family: &amp;quot;JetBrains Mono&amp;quot;, monospace;&quot;&gt;&lt;pre style=&quot;font-family: &amp;quot;JetBrains Mono&amp;quot;, monospace;&quot;&gt;&lt;pre style=&quot;font-family: &amp;quot;JetBrains Mono&amp;quot;, monospace;&quot;&gt;&lt;font style=&quot;&quot;&gt;self.sets.append(new_set)&lt;/font&gt;&lt;/pre&gt;&lt;/pre&gt;&lt;/pre&gt;&lt;/pre&gt;&lt;/pre&gt;&lt;/pre&gt;&lt;/pre&gt;&lt;/pre&gt;&lt;/pre&gt;&lt;/div&gt;" style="rounded=0;whiteSpace=wrap;html=1;absoluteArcSize=1;arcSize=14;strokeWidth=2;fontSize=14;labelBackgroundColor=none;fontColor=default;" parent="1" vertex="1">
          <mxGeometry x="1922.5" y="1555" width="245" height="50" as="geometry" />
        </mxCell>
        <mxCell id="QZCH3a_QSV3moyp_Yn6d-89" style="edgeStyle=orthogonalEdgeStyle;rounded=0;orthogonalLoop=1;jettySize=auto;html=1;exitX=0.5;exitY=1;exitDx=0;exitDy=0;fontColor=default;" parent="1" source="QZCH3a_QSV3moyp_Yn6d-90" target="QZCH3a_QSV3moyp_Yn6d-91" edge="1">
          <mxGeometry relative="1" as="geometry" />
        </mxCell>
        <mxCell id="QZCH3a_QSV3moyp_Yn6d-90" value="&lt;div style=&quot;&quot;&gt;&lt;pre style=&quot;font-family: &amp;quot;JetBrains Mono&amp;quot;, monospace;&quot;&gt;&lt;pre style=&quot;font-family: &amp;quot;JetBrains Mono&amp;quot;, monospace;&quot;&gt;&lt;pre style=&quot;font-family: &amp;quot;JetBrains Mono&amp;quot;, monospace;&quot;&gt;&lt;pre style=&quot;font-family: &amp;quot;JetBrains Mono&amp;quot;, monospace;&quot;&gt;&lt;pre style=&quot;font-family: &amp;quot;JetBrains Mono&amp;quot;, monospace;&quot;&gt;&lt;pre style=&quot;font-family: &amp;quot;JetBrains Mono&amp;quot;, monospace;&quot;&gt;&lt;pre style=&quot;font-family: &amp;quot;JetBrains Mono&amp;quot;, monospace;&quot;&gt;&lt;pre style=&quot;font-family: &amp;quot;JetBrains Mono&amp;quot;, monospace;&quot;&gt;&lt;pre style=&quot;font-family: &amp;quot;JetBrains Mono&amp;quot;, monospace;&quot;&gt;&lt;font style=&quot;&quot;&gt;raise AttributeError(f&#39;Set with the name &quot;{new_set.name}&quot; has already been added.&#39;)&lt;/font&gt;&lt;/pre&gt;&lt;/pre&gt;&lt;/pre&gt;&lt;/pre&gt;&lt;/pre&gt;&lt;/pre&gt;&lt;/pre&gt;&lt;/pre&gt;&lt;/pre&gt;&lt;/div&gt;" style="rounded=0;whiteSpace=wrap;html=1;absoluteArcSize=1;arcSize=14;strokeWidth=2;fontSize=14;labelBackgroundColor=none;fontColor=default;" parent="1" vertex="1">
          <mxGeometry x="1166.23" y="1605" width="650" height="45" as="geometry" />
        </mxCell>
        <mxCell id="QZCH3a_QSV3moyp_Yn6d-91" value="&lt;font style=&quot;font-size: 16px;&quot;&gt;end&lt;/font&gt;" style="strokeWidth=2;html=1;shape=mxgraph.flowchart.terminator;whiteSpace=wrap;fontColor=default;" parent="1" vertex="1">
          <mxGeometry x="1433.73" y="1705" width="115" height="60" as="geometry" />
        </mxCell>
        <mxCell id="QZCH3a_QSV3moyp_Yn6d-92" value="&lt;font style=&quot;font-size: 16px;&quot;&gt;end&lt;/font&gt;" style="strokeWidth=2;html=1;shape=mxgraph.flowchart.terminator;whiteSpace=wrap;fontColor=default;" parent="1" vertex="1">
          <mxGeometry x="1987.5000000000002" y="1660" width="115" height="60" as="geometry" />
        </mxCell>
        <mxCell id="QZCH3a_QSV3moyp_Yn6d-96" style="edgeStyle=orthogonalEdgeStyle;rounded=0;orthogonalLoop=1;jettySize=auto;html=1;exitX=0.5;exitY=1;exitDx=0;exitDy=0;exitPerimeter=0;entryX=0.5;entryY=0;entryDx=0;entryDy=0;entryPerimeter=0;" parent="1" source="QZCH3a_QSV3moyp_Yn6d-74" target="QZCH3a_QSV3moyp_Yn6d-79" edge="1">
          <mxGeometry relative="1" as="geometry" />
        </mxCell>
        <mxCell id="QZCH3a_QSV3moyp_Yn6d-102" value="&lt;div style=&quot;background-color: rgb(30, 31, 34);&quot;&gt;&lt;pre style=&quot;font-family:&#39;JetBrains Mono&#39;,monospace;font-size:9.8pt;&quot;&gt;&lt;div style=&quot;color: rgb(188, 190, 196);&quot;&gt;&lt;pre style=&quot;font-family:&#39;JetBrains Mono&#39;,monospace;font-size:9.8pt;&quot;&gt;&lt;div&gt;&lt;pre style=&quot;font-family:&#39;JetBrains Mono&#39;,monospace;font-size:9.8pt;&quot;&gt;&lt;span style=&quot;color:#cf8e6d;&quot;&gt;def &lt;/span&gt;&lt;span style=&quot;color:#56a8f5;&quot;&gt;add_implication&lt;/span&gt;(&lt;span style=&quot;color:#94558d;&quot;&gt;self&lt;/span&gt;, new_implication :&lt;span style=&quot;color:#a26c8f;&quot;&gt;ImplicationScheme&lt;/span&gt;)&lt;/pre&gt;&lt;/div&gt;&lt;/pre&gt;&lt;/div&gt;&lt;/pre&gt;&lt;/div&gt;" style="text;html=1;align=center;verticalAlign=middle;resizable=0;points=[];autosize=1;strokeColor=none;fillColor=none;fontColor=default;" parent="1" vertex="1">
          <mxGeometry x="2940" y="1180" width="460" height="60" as="geometry" />
        </mxCell>
        <mxCell id="QZCH3a_QSV3moyp_Yn6d-103" value="&lt;font style=&quot;font-size: 16px;&quot;&gt;begin&lt;/font&gt;" style="strokeWidth=2;html=1;shape=mxgraph.flowchart.terminator;whiteSpace=wrap;fontColor=default;" parent="1" vertex="1">
          <mxGeometry x="2947.93" y="1280" width="115" height="60" as="geometry" />
        </mxCell>
        <mxCell id="QZCH3a_QSV3moyp_Yn6d-104" style="edgeStyle=orthogonalEdgeStyle;rounded=0;orthogonalLoop=1;jettySize=auto;html=1;exitX=0;exitY=0.5;exitDx=0;exitDy=0;exitPerimeter=0;" parent="1" source="QZCH3a_QSV3moyp_Yn6d-108" target="QZCH3a_QSV3moyp_Yn6d-112" edge="1">
          <mxGeometry relative="1" as="geometry" />
        </mxCell>
        <mxCell id="QZCH3a_QSV3moyp_Yn6d-105" value="yes" style="edgeLabel;html=1;align=center;verticalAlign=middle;resizable=0;points=[];" parent="QZCH3a_QSV3moyp_Yn6d-104" vertex="1" connectable="0">
          <mxGeometry x="0.2511" y="-2" relative="1" as="geometry">
            <mxPoint as="offset" />
          </mxGeometry>
        </mxCell>
        <mxCell id="QZCH3a_QSV3moyp_Yn6d-106" style="edgeStyle=orthogonalEdgeStyle;rounded=0;orthogonalLoop=1;jettySize=auto;html=1;exitX=1;exitY=0.5;exitDx=0;exitDy=0;exitPerimeter=0;entryX=0.5;entryY=0;entryDx=0;entryDy=0;entryPerimeter=0;" parent="1" source="QZCH3a_QSV3moyp_Yn6d-108" target="QZCH3a_QSV3moyp_Yn6d-116" edge="1">
          <mxGeometry relative="1" as="geometry">
            <mxPoint x="3288.833333333333" y="1525" as="targetPoint" />
            <Array as="points">
              <mxPoint x="3535" y="1440" />
              <mxPoint x="3535" y="1525" />
            </Array>
          </mxGeometry>
        </mxCell>
        <mxCell id="QZCH3a_QSV3moyp_Yn6d-107" value="no" style="edgeLabel;html=1;align=center;verticalAlign=middle;resizable=0;points=[];" parent="QZCH3a_QSV3moyp_Yn6d-106" vertex="1" connectable="0">
          <mxGeometry x="-0.3489" y="-2" relative="1" as="geometry">
            <mxPoint as="offset" />
          </mxGeometry>
        </mxCell>
        <mxCell id="QZCH3a_QSV3moyp_Yn6d-108" value="&lt;div style=&quot;&quot;&gt;&lt;pre style=&quot;font-family: &amp;quot;JetBrains Mono&amp;quot;, monospace;&quot;&gt;&lt;font style=&quot;&quot;&gt;self.__check_if_already_has_implication(new_implication)&lt;/font&gt;&lt;/pre&gt;&lt;/div&gt;" style="strokeWidth=2;html=1;shape=mxgraph.flowchart.decision;whiteSpace=wrap;fontSize=14;labelBackgroundColor=none;fontColor=default;" parent="1" vertex="1">
          <mxGeometry x="2760" y="1380" width="490.86" height="120" as="geometry" />
        </mxCell>
        <mxCell id="QZCH3a_QSV3moyp_Yn6d-111" style="edgeStyle=orthogonalEdgeStyle;rounded=0;orthogonalLoop=1;jettySize=auto;html=1;exitX=0.5;exitY=1;exitDx=0;exitDy=0;fontColor=default;" parent="1" source="QZCH3a_QSV3moyp_Yn6d-112" target="QZCH3a_QSV3moyp_Yn6d-113" edge="1">
          <mxGeometry relative="1" as="geometry" />
        </mxCell>
        <mxCell id="QZCH3a_QSV3moyp_Yn6d-112" value="&lt;div style=&quot;&quot;&gt;&lt;pre style=&quot;font-family: &amp;quot;JetBrains Mono&amp;quot;, monospace;&quot;&gt;&lt;pre style=&quot;font-family: &amp;quot;JetBrains Mono&amp;quot;, monospace;&quot;&gt;&lt;pre style=&quot;font-family: &amp;quot;JetBrains Mono&amp;quot;, monospace;&quot;&gt;&lt;pre style=&quot;font-family: &amp;quot;JetBrains Mono&amp;quot;, monospace;&quot;&gt;&lt;pre style=&quot;font-family: &amp;quot;JetBrains Mono&amp;quot;, monospace;&quot;&gt;&lt;pre style=&quot;font-family: &amp;quot;JetBrains Mono&amp;quot;, monospace;&quot;&gt;&lt;pre style=&quot;font-family: &amp;quot;JetBrains Mono&amp;quot;, monospace;&quot;&gt;&lt;pre style=&quot;font-family: &amp;quot;JetBrains Mono&amp;quot;, monospace;&quot;&gt;&lt;pre style=&quot;font-family: &amp;quot;JetBrains Mono&amp;quot;, monospace;&quot;&gt;&lt;font style=&quot;&quot;&gt;raise AttributeError(f&#39;Implication &quot;{new_implication}&quot; has already been added.&#39;)&lt;/font&gt;&lt;/pre&gt;&lt;/pre&gt;&lt;/pre&gt;&lt;/pre&gt;&lt;/pre&gt;&lt;/pre&gt;&lt;/pre&gt;&lt;/pre&gt;&lt;/pre&gt;&lt;/div&gt;" style="rounded=0;whiteSpace=wrap;html=1;absoluteArcSize=1;arcSize=14;strokeWidth=2;fontSize=14;labelBackgroundColor=none;fontColor=default;" parent="1" vertex="1">
          <mxGeometry x="2410" y="1575" width="650" height="45" as="geometry" />
        </mxCell>
        <mxCell id="QZCH3a_QSV3moyp_Yn6d-113" value="&lt;font style=&quot;font-size: 16px;&quot;&gt;end&lt;/font&gt;" style="strokeWidth=2;html=1;shape=mxgraph.flowchart.terminator;whiteSpace=wrap;fontColor=default;" parent="1" vertex="1">
          <mxGeometry x="2677.5" y="1675" width="115" height="60" as="geometry" />
        </mxCell>
        <mxCell id="QZCH3a_QSV3moyp_Yn6d-114" value="&lt;font style=&quot;font-size: 16px;&quot;&gt;end&lt;/font&gt;" style="strokeWidth=2;html=1;shape=mxgraph.flowchart.terminator;whiteSpace=wrap;fontColor=default;" parent="1" vertex="1">
          <mxGeometry x="3477.9300000000003" y="1880" width="115" height="60" as="geometry" />
        </mxCell>
        <mxCell id="QZCH3a_QSV3moyp_Yn6d-115" style="edgeStyle=orthogonalEdgeStyle;rounded=0;orthogonalLoop=1;jettySize=auto;html=1;exitX=0.5;exitY=1;exitDx=0;exitDy=0;exitPerimeter=0;entryX=0.5;entryY=0;entryDx=0;entryDy=0;entryPerimeter=0;" parent="1" source="QZCH3a_QSV3moyp_Yn6d-103" target="QZCH3a_QSV3moyp_Yn6d-108" edge="1">
          <mxGeometry relative="1" as="geometry" />
        </mxCell>
        <mxCell id="QZCH3a_QSV3moyp_Yn6d-118" style="edgeStyle=orthogonalEdgeStyle;rounded=0;orthogonalLoop=1;jettySize=auto;html=1;exitX=0.5;exitY=1;exitDx=0;exitDy=0;exitPerimeter=0;entryX=0.5;entryY=0;entryDx=0;entryDy=0;" parent="1" source="QZCH3a_QSV3moyp_Yn6d-116" target="QZCH3a_QSV3moyp_Yn6d-117" edge="1">
          <mxGeometry relative="1" as="geometry" />
        </mxCell>
        <mxCell id="QZCH3a_QSV3moyp_Yn6d-120" value="yes" style="edgeLabel;html=1;align=center;verticalAlign=middle;resizable=0;points=[];" parent="QZCH3a_QSV3moyp_Yn6d-118" vertex="1" connectable="0">
          <mxGeometry x="-0.1296" y="-2" relative="1" as="geometry">
            <mxPoint as="offset" />
          </mxGeometry>
        </mxCell>
        <mxCell id="QZCH3a_QSV3moyp_Yn6d-122" style="edgeStyle=orthogonalEdgeStyle;rounded=0;orthogonalLoop=1;jettySize=auto;html=1;exitX=0;exitY=0.5;exitDx=0;exitDy=0;exitPerimeter=0;" parent="1" source="QZCH3a_QSV3moyp_Yn6d-116" target="QZCH3a_QSV3moyp_Yn6d-121" edge="1">
          <mxGeometry relative="1" as="geometry" />
        </mxCell>
        <mxCell id="QZCH3a_QSV3moyp_Yn6d-125" value="no" style="edgeLabel;html=1;align=center;verticalAlign=middle;resizable=0;points=[];" parent="QZCH3a_QSV3moyp_Yn6d-122" vertex="1" connectable="0">
          <mxGeometry x="-0.2398" y="-1" relative="1" as="geometry">
            <mxPoint as="offset" />
          </mxGeometry>
        </mxCell>
        <mxCell id="QZCH3a_QSV3moyp_Yn6d-116" value="&lt;div style=&quot;&quot;&gt;&lt;pre style=&quot;font-family: &amp;quot;JetBrains Mono&amp;quot;, monospace;&quot;&gt;&lt;font style=&quot;&quot;&gt;not self.__check_if_already_has_set(new_implication.first) or &lt;/font&gt;&lt;/pre&gt;&lt;pre style=&quot;font-family: &amp;quot;JetBrains Mono&amp;quot;, monospace;&quot;&gt;&lt;font style=&quot;&quot;&gt;not self.__check_if_already_has_set(new_implication.second)&lt;/font&gt;&lt;/pre&gt;&lt;/div&gt;" style="strokeWidth=2;html=1;shape=mxgraph.flowchart.decision;whiteSpace=wrap;fontSize=14;labelBackgroundColor=none;fontColor=default;" parent="1" vertex="1">
          <mxGeometry x="3190" y="1590" width="690.86" height="170" as="geometry" />
        </mxCell>
        <mxCell id="QZCH3a_QSV3moyp_Yn6d-117" value="&lt;div style=&quot;&quot;&gt;&lt;pre style=&quot;font-family: &amp;quot;JetBrains Mono&amp;quot;, monospace;&quot;&gt;&lt;pre style=&quot;font-family: &amp;quot;JetBrains Mono&amp;quot;, monospace;&quot;&gt;&lt;pre style=&quot;font-family: &amp;quot;JetBrains Mono&amp;quot;, monospace;&quot;&gt;&lt;pre style=&quot;font-family: &amp;quot;JetBrains Mono&amp;quot;, monospace;&quot;&gt;&lt;pre style=&quot;font-family: &amp;quot;JetBrains Mono&amp;quot;, monospace;&quot;&gt;&lt;pre style=&quot;font-family: &amp;quot;JetBrains Mono&amp;quot;, monospace;&quot;&gt;&lt;pre style=&quot;font-family: &amp;quot;JetBrains Mono&amp;quot;, monospace;&quot;&gt;&lt;pre style=&quot;font-family: &amp;quot;JetBrains Mono&amp;quot;, monospace;&quot;&gt;&lt;pre style=&quot;font-family: &amp;quot;JetBrains Mono&amp;quot;, monospace;&quot;&gt;&lt;font style=&quot;&quot;&gt;raise AttributeError(f&#39;All sets featured in implication must be added.&#39;)&lt;/font&gt;&lt;/pre&gt;&lt;/pre&gt;&lt;/pre&gt;&lt;/pre&gt;&lt;/pre&gt;&lt;/pre&gt;&lt;/pre&gt;&lt;/pre&gt;&lt;/pre&gt;&lt;/div&gt;" style="rounded=0;whiteSpace=wrap;html=1;absoluteArcSize=1;arcSize=14;strokeWidth=2;fontSize=14;labelBackgroundColor=none;fontColor=default;" parent="1" vertex="1">
          <mxGeometry x="3210.43" y="1800" width="650" height="45" as="geometry" />
        </mxCell>
        <mxCell id="QZCH3a_QSV3moyp_Yn6d-119" style="edgeStyle=orthogonalEdgeStyle;rounded=0;orthogonalLoop=1;jettySize=auto;html=1;exitX=0.5;exitY=1;exitDx=0;exitDy=0;entryX=0.5;entryY=0;entryDx=0;entryDy=0;entryPerimeter=0;" parent="1" source="QZCH3a_QSV3moyp_Yn6d-117" target="QZCH3a_QSV3moyp_Yn6d-114" edge="1">
          <mxGeometry relative="1" as="geometry" />
        </mxCell>
        <mxCell id="QZCH3a_QSV3moyp_Yn6d-124" style="edgeStyle=orthogonalEdgeStyle;rounded=0;orthogonalLoop=1;jettySize=auto;html=1;exitX=0.5;exitY=1;exitDx=0;exitDy=0;" parent="1" source="QZCH3a_QSV3moyp_Yn6d-121" target="QZCH3a_QSV3moyp_Yn6d-123" edge="1">
          <mxGeometry relative="1" as="geometry" />
        </mxCell>
        <mxCell id="QZCH3a_QSV3moyp_Yn6d-121" value="&lt;div style=&quot;&quot;&gt;&lt;pre style=&quot;font-family: &amp;quot;JetBrains Mono&amp;quot;, monospace;&quot;&gt;&lt;pre style=&quot;font-family: &amp;quot;JetBrains Mono&amp;quot;, monospace;&quot;&gt;&lt;pre style=&quot;font-family: &amp;quot;JetBrains Mono&amp;quot;, monospace;&quot;&gt;&lt;pre style=&quot;font-family: &amp;quot;JetBrains Mono&amp;quot;, monospace;&quot;&gt;&lt;pre style=&quot;font-family: &amp;quot;JetBrains Mono&amp;quot;, monospace;&quot;&gt;&lt;pre style=&quot;font-family: &amp;quot;JetBrains Mono&amp;quot;, monospace;&quot;&gt;&lt;pre style=&quot;font-family: &amp;quot;JetBrains Mono&amp;quot;, monospace;&quot;&gt;&lt;pre style=&quot;font-family: &amp;quot;JetBrains Mono&amp;quot;, monospace;&quot;&gt;&lt;pre style=&quot;font-family: &amp;quot;JetBrains Mono&amp;quot;, monospace;&quot;&gt;&lt;font style=&quot;&quot;&gt;self.implications.append(new_implication)&lt;/font&gt;&lt;/pre&gt;&lt;/pre&gt;&lt;/pre&gt;&lt;/pre&gt;&lt;/pre&gt;&lt;/pre&gt;&lt;/pre&gt;&lt;/pre&gt;&lt;/pre&gt;&lt;/div&gt;" style="rounded=0;whiteSpace=wrap;html=1;absoluteArcSize=1;arcSize=14;strokeWidth=2;fontSize=14;labelBackgroundColor=none;fontColor=default;" parent="1" vertex="1">
          <mxGeometry x="2820" y="1800" width="330" height="45" as="geometry" />
        </mxCell>
        <mxCell id="QZCH3a_QSV3moyp_Yn6d-123" value="&lt;font style=&quot;font-size: 16px;&quot;&gt;end&lt;/font&gt;" style="strokeWidth=2;html=1;shape=mxgraph.flowchart.terminator;whiteSpace=wrap;fontColor=default;" parent="1" vertex="1">
          <mxGeometry x="2927.5000000000005" y="1890" width="115" height="60" as="geometry" />
        </mxCell>
        <mxCell id="QZCH3a_QSV3moyp_Yn6d-129" style="edgeStyle=orthogonalEdgeStyle;rounded=0;orthogonalLoop=1;jettySize=auto;html=1;exitX=0.5;exitY=1;exitDx=0;exitDy=0;" parent="1" source="QZCH3a_QSV3moyp_Yn6d-126" target="QZCH3a_QSV3moyp_Yn6d-8" edge="1">
          <mxGeometry relative="1" as="geometry">
            <mxPoint x="367.1034482758621" y="560" as="targetPoint" />
          </mxGeometry>
        </mxCell>
        <mxCell id="QZCH3a_QSV3moyp_Yn6d-126" value="&lt;div style=&quot;&quot;&gt;&lt;pre style=&quot;&quot;&gt;&lt;pre style=&quot;&quot;&gt;&lt;pre style=&quot;&quot;&gt;&lt;pre style=&quot;&quot;&gt;&lt;pre style=&quot;&quot;&gt;&lt;pre style=&quot;&quot;&gt;&lt;pre style=&quot;&quot;&gt;&lt;pre style=&quot;&quot;&gt;&lt;pre style=&quot;&quot;&gt;&lt;font style=&quot;&quot;&gt;&lt;font face=&quot;JetBrains Mono, monospace&quot;&gt;fuzzy_set &lt;/font&gt;&lt;font face=&quot;JetBrains Mono, monospace&quot; style=&quot;&quot;&gt;= &lt;/font&gt;self.sets[i]&lt;/font&gt;&lt;font face=&quot;JetBrains Mono, monospace&quot;&gt;&lt;/font&gt;&lt;/pre&gt;&lt;/pre&gt;&lt;/pre&gt;&lt;/pre&gt;&lt;/pre&gt;&lt;/pre&gt;&lt;/pre&gt;&lt;/pre&gt;&lt;/pre&gt;&lt;/div&gt;" style="rounded=0;whiteSpace=wrap;html=1;absoluteArcSize=1;arcSize=14;strokeWidth=2;fontSize=14;labelBackgroundColor=none;fontColor=default;" parent="1" vertex="1">
          <mxGeometry x="238.65999999999997" y="445" width="257.58" height="70" as="geometry" />
        </mxCell>
      </root>
    </mxGraphModel>
  </diagram>
</mxfile>
